<svg xmlns="http://www.w3.org/2000/svg" viewBox="72.5 25 430 430"><rect height="100%" width="100%" x="72.5" y="25" fill="rgba(38, 33, 94, 1)"/> <svg xmlns="http://www.w3.org/2000/svg" xmlns:xlink="http://www.w3.org/1999/xlink" version="1.1" id="Layer_1" x="142.5" y="95" width="290" viewBox="0 0 283.46 283.46" enable-background="new 0 0 283.46 283.46" xml:space="preserve" height="290" preserveAspectRatio="xMinYMin" style="overflow: visible;"><path d="M224.888,184.029l-3.979-3.941c-1.013-1.012-2.187-1.885-3.494-2.598l-5.379-2.934l2.485-5.595   c6.287-14.154,9.476-27.126,9.476-38.561c0-45.367-36.906-82.273-82.272-82.273c-45.364,0-82.272,36.906-82.272,82.273   c0,11.438,3.187,24.414,9.47,38.561l2.488,5.595l-5.38,2.934c-1.305,0.713-2.478,1.586-3.49,2.598l-3.966,4.045   c-5.911,5.91-5.911,15.532-0.001,21.442l25.318,25.316c2.864,2.863,6.669,4.44,10.718,4.44c3.964,0,7.698-1.515,10.54-4.267   l18.867-23.165c1.184-1.4,1.058-3.555-0.235-4.854c-18.693-18.81-37.754-51.65-37.754-72.645c0-30.714,24.987-55.699,55.698-55.699   c30.713,0,55.697,24.985,55.697,55.699c0,20.992-19.067,53.835-37.759,72.645c-1.294,1.3-1.421,3.454-0.237,4.854l18.887,23.063   c2.842,2.751,6.575,4.266,10.54,4.266c4.049,0,7.854-1.58,10.718-4.441l25.318-25.315   C230.795,199.562,230.795,189.939,224.888,184.029z" style="fill: #42c4f5; fill-opacity: 1;"></path><path d="M147.938,97.457c-2.519,0-4.568,2.05-4.568,4.57v91.053h9.144v-91.053C152.514,99.507,150.462,97.457,147.938,97.457z" style="fill: #5c33ae; fill-opacity: 1;"></path><path d="M132.198,118.939c-2.521,0-4.572,2.051-4.572,4.569v69.117c0.136,0.148,0.268,0.308,0.403,0.454h8.74v-69.571   C136.769,120.99,134.719,118.939,132.198,118.939z" style="fill: #d64ecf; fill-opacity: 1;"></path><path d="M111.886,144.87v26.958c2.808,4.461,5.878,8.848,9.141,13.002v-39.96c0-2.519-2.051-4.569-4.572-4.569   C113.937,140.301,111.886,142.352,111.886,144.87z" style="fill: #5c33ae; fill-opacity: 1;"></path><path d="M96.142,130.712v2.493c0.704,7.495,4.063,17.106,9.143,27.062v-29.555c0-2.519-2.052-4.569-4.573-4.569   C98.192,126.143,96.142,128.193,96.142,130.712z" style="fill: #d64ecf; fill-opacity: 1;"></path><path d="M168.252,130.714c0-2.519-2.05-4.569-4.57-4.569s-4.57,2.05-4.57,4.569v58.171c3.215-3.791,6.282-7.841,9.141-12.012   V130.714z" style="fill: #d64ecf; fill-opacity: 1;"></path><path d="M179.425,112.205c-2.521,0-4.574,2.049-4.574,4.566v49.575c3.817-6.666,6.955-13.325,9.145-19.486v-30.088   C183.995,114.254,181.945,112.205,179.425,112.205z" style="fill: #5c33ae; fill-opacity: 1;"></path></svg></svg>